<svg width="26" height="26" fill="none" xmlns="http://www.w3.org/2000/svg"><g clip-path="url(#a)"><path d="M16.872 4.12c.828-1.001 1.41-2.36 1.38-3.745a.387.387 0 0 0-.446-.37c-1.215.185-2.574.946-3.414 1.93-.775.896-1.463 2.289-1.411 3.668a.383.383 0 0 0 .391.368c1.341-.038 2.665-.84 3.5-1.851Z" fill="#D6D6D8"/><path d="M14.027 5.603C13.947 3.464 15.561.966 18.18.161a.39.39 0 0 0-.374-.156c-1.215.185-2.574.946-3.414 1.93-.775.896-1.463 2.289-1.411 3.668a.383.383 0 0 0 .391.368c.26-.007.52-.044.775-.105a.382.382 0 0 1-.12-.263Z" fill="#C2C2C4"/><path d="M23.344 18.926c-.842-.423-3.165-1.886-3.194-5.13-.024-2.656 1.738-4.2 2.487-4.739a.386.386 0 0 0 .082-.551 5.633 5.633 0 0 0-2.05-1.633 6.98 6.98 0 0 0-.37-.16c-3.52-1.386-5.738.738-7.082.738-1.029 0-2.616-1.163-4.298-1.13-2.21.031-4.247 1.285-5.387 3.264-1.749 3.035-1.172 7.184.19 10.418l.137.316c.395.886.847 1.696 1.323 2.384 1.093 1.58 2.397 3.36 4.111 3.295 1.65-.065 2.273-1.066 4.266-1.066 1.992 0 2.553 1.066 4.297 1.034 1.775-.033 2.9-1.612 3.985-3.2a14.536 14.536 0 0 0 1.694-3.37.386.386 0 0 0-.19-.47Z" fill="#D6D6D8"/><path d="M6.229 22.704a14.851 14.851 0 0 1-1.323-2.385 19.489 19.489 0 0 1-.137-.316c-1.354-3.213-1.945-7.372-.19-10.418C5.63 7.758 7.449 6.549 9.46 6.35a3.928 3.928 0 0 0-.542-.03c-2.21.033-4.247 1.286-5.387 3.265-1.749 3.035-1.172 7.185.19 10.418l.137.316c.395.886.847 1.696 1.323 2.385 1.093 1.58 2.397 3.36 4.11 3.294a3.95 3.95 0 0 0 .477-.047c-1.438-.292-2.572-1.848-3.54-3.247Z" fill="#C2C2C4"/></g><defs><clipPath id="a"><path fill="#fff" d="M0 0h26v26H0z"/></clipPath></defs></svg>