<svg width="43" height="43" fill="none" xmlns="http://www.w3.org/2000/svg"><path d="M18.98 0a3.783 3.783 0 0 0-3.779 3.78v1.343l2.52 1.26h2.52l2.519-1.26V3.779A3.783 3.783 0 0 0 18.98 0Z" fill="#FF6A4D"/><path d="M22.76 5.123V3.779A3.783 3.783 0 0 0 18.98 0v6.383h1.26l2.52-1.26Z" fill="#E64D2E"/><path d="M0 37.96C.584 40.837 3.252 43 6.299 43c3.047 0 5.799-2.164 6.383-5.04l-2.737-1.259H1.749L0 37.961Z" fill="#474F54"/><path d="M6.299 40.48a3.783 3.783 0 0 1-3.78-3.779 3.783 3.783 0 0 1 3.78-3.78c2.084 0 3.863 1.696 3.863 3.78 0 2.084-1.78 3.78-3.863 3.78Z" fill="#F2F9FF"/><path d="M12.682 15.285H5.039l-2.52 2.52v7.558l2.52 1.26h7.643l3.779-1.26v-6.802l-1.26-.756-2.52-2.52Z" fill="#DC780B"/><path d="M2.52 12.766v5.039H15.2l1.26-.652-1.26-.608v-3.78H2.52Z" fill="#FABE2C"/><path d="M20.24 37.96H0v-1.259c0-4.87 4.032-8.818 8.902-8.818l2.1-1.26H22.76v9.238l-2.52 2.1Z" fill="#FF6A4D"/><path d="M0 25.363h17.72v2.52H0v-2.52Z" fill="#32393F"/><path d="M26.54 31.738v4.736l-1.26 1.487h-5.04V27.883h-2.52a2.527 2.527 0 0 1-2.519-2.52v-6.299h7.559v3.78a2.527 2.527 0 0 1 2.52 2.52v5.038l1.26 1.336Z" fill="#575F64"/><path d="M26.54 31.738v4.736l-1.26 1.487h-5.04V27.883h-1.26v-8.819h3.78v3.78a2.527 2.527 0 0 1 2.52 2.52v5.038l1.26 1.336Z" fill="#474F54"/><path d="M22.76 17.805v-1.26a3.783 3.783 0 0 0-3.78-3.78 3.783 3.783 0 0 0-3.779 3.78v2.52a3.78 3.78 0 0 0 3.78 3.779h10.162a3.78 3.78 0 0 0 3.779-3.78v-1.26H22.76Z" fill="#FF6A4D"/><path d="M32.922 19.064v-1.26H22.76v-1.26a3.783 3.783 0 0 0-3.78-3.778v10.078h10.163a3.78 3.78 0 0 0 3.779-3.78Z" fill="#E64D2E"/><path d="M20.24 6.383h-2.52l-2.519 1.26v1.26c0 2.083 1.695 3.863 3.78 3.863 2.083 0 3.779-1.78 3.779-3.864v-1.26l-2.52-1.26Z" fill="#FFE1BA"/><path d="M22.76 8.902v-1.26l-2.52-1.26h-1.26v6.384c2.084 0 3.78-1.78 3.78-3.864Z" fill="#FFBFAB"/><path d="M18.98 5.123h-3.779v2.52H25.28v-2.52H18.98Z" fill="#474F54"/><path d="M18.98 5.123h6.3v2.52h-6.3v-2.52Z" fill="#32393F"/><path d="m36.394 25.645-.965-6.759-5.027-2.341v10.078c0 1.987-1.712 3.78-3.863 3.78h-1.26v7.558H40.48L43 36.7v-2.52c0-4.03-2.78-7.543-6.606-8.536Z" fill="#E64D2E"/><path d="M37.96 20.324h-3.778a3.784 3.784 0 0 1-3.78-3.78 3.784 3.784 0 0 1 3.78-3.778h3.779v7.558Z" fill="#FF6A4D"/><path d="m37.08 30.44-.367 1.4-2.129-1.045c-2.43.874-4.182 3.18-4.182 5.906a6.306 6.306 0 0 0 6.3 6.299A6.306 6.306 0 0 0 43 36.701c0-3.343-2.626-6.06-5.92-6.26Z" fill="#32393F"/><path d="M36.701 32.922a3.783 3.783 0 0 0-3.78 3.78 3.783 3.783 0 0 0 3.78 3.779 3.783 3.783 0 0 0 3.78-3.78 3.783 3.783 0 0 0-3.78-3.78Z" fill="#DFE7F4"/><path d="m37.949 36.523-.87-6.082c-.127-.008-.248-.039-.378-.039-.746 0-1.452.153-2.117.393l.87 6.085 2.495-.357Z" fill="#C7CFE1"/></svg>