<svg width="45" height="45" fill="none" xmlns="http://www.w3.org/2000/svg"><path d="M3.942 6.136a1.757 1.757 0 0 1 1.7-2.517 2.992 2.992 0 0 1 5.713 1.038 1.732 1.732 0 1 1-1.369 2.707 2.992 2.992 0 0 1-3.729-.398 1.756 1.756 0 0 1-2.315-.83Z" fill="url(#a)"/><path d="M4.384 2.937a1.468 1.468 0 1 0 0-2.937 1.468 1.468 0 0 0 0 2.937Z" fill="url(#b)"/><path d="M13.108 14.778H9.566a.907.907 0 0 1-.907-.907V8.222c0-.501.406-.907.907-.907h3.542c.5 0 .907.406.907.907v5.649a.907.907 0 0 1-.907.907Z" fill="url(#c)"/><path d="M11.986 30.885H1.41v13.572h10.576V30.885Z" fill="url(#d)"/><path d="M12.426 33.793H1.434a.671.671 0 0 1-.642-.866l1.09-3.593a.67.67 0 0 1 .642-.476h9.902v4.935Z" fill="url(#e)"/><path d="M43.535 30.885H32.96v13.572h10.575V30.885Z" fill="url(#f)"/><path d="m43.535 40.901-7.105-7.106h-3.47v10.661h10.575v-3.555Z" fill="url(#g)"/><path d="M32.52 33.793h10.992c.45 0 .773-.435.642-.866l-1.09-3.593a.67.67 0 0 0-.643-.476H32.52v4.935Z" fill="url(#h)"/><path d="M36.436 16.377v28.08H8.513v-28.08L22.473 2.69l13.963 13.687Z" fill="url(#i)"/><path d="M8.513 16.377v1.609l26.47 26.47h1.453v-28.08L22.473 2.69 8.513 16.377Z" fill="url(#j)"/><path d="M36.436 24.863v19.593H27.62L8.513 25.35v-.486h27.923Z" fill="url(#k)"/><path d="M32.121 44.456H18.465L10.96 36.95a1.201 1.201 0 0 1-.55-1.008V29.9c0-.662.538-1.2 1.2-1.2h4.356c.422 0 .794.22 1.009.55l-.033.026 15.18 15.18Z" fill="url(#l)"/><path d="M15.964 36.439H11.61a.497.497 0 0 1-.497-.498v-6.04c0-.275.223-.498.497-.498h4.355c.275 0 .498.223.498.498v6.04a.497.497 0 0 1-.498.498Z" fill="#503837"/><path d="M15.965 37.143h-4.356a1.203 1.203 0 0 1-1.2-1.201V29.9c0-.663.538-1.201 1.2-1.201h4.356c.662 0 1.201.538 1.201 1.2v6.042c0 .662-.539 1.2-1.201 1.2Zm-4.149-1.408h3.942v-5.628h-3.942v5.628Z" fill="#fff"/><path d="M36.437 31.191v13.265h-.429l-7.506-7.506a1.2 1.2 0 0 1-.552-1.008V29.9c0-.662.54-1.2 1.202-1.2h4.355c.422 0 .794.22 1.009.55l.017.013-.012.013 1.916 1.915Z" fill="url(#m)"/><path d="M33.507 36.439h-4.355a.497.497 0 0 1-.498-.498v-6.04c0-.275.223-.498.498-.498h4.355c.275 0 .497.223.497.498v6.04a.497.497 0 0 1-.497.498Z" fill="#503837"/><path d="M33.507 37.143H29.15a1.203 1.203 0 0 1-1.2-1.201V29.9c0-.663.538-1.201 1.2-1.201h4.356c.662 0 1.201.538 1.201 1.2v6.042c0 .662-.539 1.2-1.201 1.2Zm-4.149-1.408H33.3v-5.628h-3.942v5.628Z" fill="#fff"/><path d="M19.565 44.456V29.202c0-.673.545-1.218 1.218-1.218h3.383c.673 0 1.218.545 1.218 1.218v15.254h-5.82Z" fill="#816965"/><path d="M26.105 44.456h-1.441V29.617a.916.916 0 0 0-.913-.913h-2.552a.913.913 0 0 0-.913.913v14.84h-1.441V28.663c0-.773.627-1.4 1.4-1.4h4.459c.774 0 1.401.627 1.401 1.4v15.792Z" fill="#503837"/><path d="M21.443 34.367a.657.657 0 1 0 0-1.315.657.657 0 0 0 0 1.315Z" fill="#fff"/><path d="M36.437 40.612H8.512v3.844h27.925v-3.844Z" fill="#654E48"/><path d="M8.207 42.954c0 .53-.1 1.037-.284 1.502H.283A4.088 4.088 0 0 1 0 42.954a4.104 4.104 0 0 1 8.207 0Z" fill="url(#n)"/><path d="M10.852 43.367c0 .384-.072.752-.205 1.09H5.105a2.966 2.966 0 0 1-.206-1.09 2.977 2.977 0 0 1 5.953 0Z" fill="url(#o)"/><path d="M44.945 42.705c0 .619-.117 1.209-.33 1.751h-8.906a4.768 4.768 0 0 1-.33-1.751 4.784 4.784 0 0 1 9.566 0Z" fill="url(#p)"/><path d="M36.436 20.394v14.882L18.474 17.314a1.211 1.211 0 0 1-.59-1.038V12.9a4.593 4.593 0 0 1 4.589-4.587c1.37 0 2.6.605 3.442 1.559l10.52 10.52Z" fill="url(#q)"/><path d="M34.39 18.946H10.917c-.56 0-1.015.455-1.015 1.015v4.506h.705v-4.506c0-.171.139-.31.31-.31h1.404v4.816h.705V19.65h2.094v4.816h.705V19.65h2.095v4.816h.705V19.65h2.094v4.816h.705V19.65h2.095v4.816h.705V19.65h2.094v4.816h.705V19.65h2.095v4.816h.704V19.65h2.095v4.816h.705V19.65h1.766c.17 0 .31.139.31.31v4.506h.705v-4.506c0-.56-.455-1.015-1.015-1.015Z" fill="#654E48"/><path d="M37.015 23.735v2.26a.608.608 0 0 1-.608.61H8.539a.608.608 0 0 1-.608-.61v-2.26c0-.335.272-.608.608-.608h27.867c.337 0 .609.273.609.608Z" fill="url(#r)"/><path d="M41.435 18.825 23.405.789a1.316 1.316 0 0 0-1.86 0L3.51 18.823a.86.86 0 0 0 0 1.218l.769.768a.86.86 0 0 0 1.217 0L22.23 4.076a.346.346 0 0 1 .49 0L39.449 20.81a.86.86 0 0 0 1.217 0l.769-.769a.86.86 0 0 0 0-1.217Z" fill="url(#s)"/><path d="M23.406.79a1.312 1.312 0 0 0-.93-.386v3.57c.088 0 .176.034.244.102l16.73 16.735a.86.86 0 0 0 1.216 0l.77-.769a.86.86 0 0 0 0-1.217L23.405.789Z" fill="url(#t)"/><path d="M25.846 16.757H19.1a.482.482 0 0 1-.482-.482v-3.374a3.856 3.856 0 1 1 7.711 0v3.374a.482.482 0 0 1-.482.482Z" fill="#654E48"/><path d="M22.473 8.314a4.593 4.593 0 0 0-4.588 4.587v3.374c0 .67.545 1.214 1.214 1.214h6.748c.669 0 1.213-.545 1.213-1.214V12.9a4.593 4.593 0 0 0-4.587-4.587Zm3.098 4.197h-2.366V9.865a3.13 3.13 0 0 1 2.366 2.646Zm-3.83-2.646v2.646h-2.366a3.13 3.13 0 0 1 2.366-2.646Zm-2.392 4.11h2.392v2.05h-2.392v-2.05Zm3.856 2.05v-2.05h2.391v2.05h-2.391Z" fill="#fff"/><defs><linearGradient id="a" x1="2.244" y1="2.82" x2="19.536" y2="8.836" gradientUnits="userSpaceOnUse"><stop stop-color="#E2EDF2"/><stop offset="1" stop-color="#9FC7E2"/></linearGradient><linearGradient id="b" x1="3.908" y1="1.304" x2="6.454" y2="2.19" gradientUnits="userSpaceOnUse"><stop stop-color="#E2EDF2"/><stop offset="1" stop-color="#9FC7E2"/></linearGradient><linearGradient id="c" x1="9.902" y1="9.613" x2="11.679" y2="11.389" gradientUnits="userSpaceOnUse"><stop stop-color="#816965"/><stop offset="1" stop-color="#654E48"/></linearGradient><linearGradient id="d" x1="6.698" y1="32.605" x2="6.698" y2="44.657" gradientUnits="userSpaceOnUse"><stop stop-color="#FFE7A5"/><stop offset=".966" stop-color="#FFBF5C"/></linearGradient><linearGradient id="e" x1="6.594" y1="29.483" x2="6.594" y2="33.867" gradientUnits="userSpaceOnUse"><stop stop-color="#FF5D00"/><stop offset="1" stop-color="#D54003"/></linearGradient><linearGradient id="f" x1="38.247" y1="32.605" x2="38.247" y2="44.657" gradientUnits="userSpaceOnUse"><stop stop-color="#FFE7A5"/><stop offset=".966" stop-color="#FFBF5C"/></linearGradient><linearGradient id="g" x1="38" y1="42.072" x2="27.038" y2="32.303" gradientUnits="userSpaceOnUse"><stop stop-color="#FF5D00" stop-opacity="0"/><stop offset="1" stop-color="#D54003"/></linearGradient><linearGradient id="h" x1="38.351" y1="29.483" x2="38.351" y2="33.867" gradientUnits="userSpaceOnUse"><stop stop-color="#FF5D00"/><stop offset="1" stop-color="#D54003"/></linearGradient><linearGradient id="i" x1="22.474" y1="23.863" x2="22.474" y2="53.429" gradientUnits="userSpaceOnUse"><stop stop-color="#FFE7A5"/><stop offset=".966" stop-color="#FFBF5C"/><stop offset="1" stop-color="#DB9E36"/></linearGradient><linearGradient id="j" x1="19.456" y1="14.164" x2="11.373" y2="6.081" gradientUnits="userSpaceOnUse"><stop stop-color="#FF5D00" stop-opacity="0"/><stop offset="1" stop-color="#D54003"/></linearGradient><linearGradient id="k" x1="23.525" y1="31.631" x2="20.362" y2="11.999" gradientUnits="userSpaceOnUse"><stop stop-color="#FF5D00" stop-opacity="0"/><stop offset="1" stop-color="#D54003"/></linearGradient><linearGradient id="l" x1="19.227" y1="38.361" x2="6.63" y2="25.764" gradientUnits="userSpaceOnUse"><stop stop-color="#FF5D00" stop-opacity="0"/><stop offset="1" stop-color="#D54003"/></linearGradient><linearGradient id="m" x1="34.699" y1="36.292" x2="26.634" y2="28.226" gradientUnits="userSpaceOnUse"><stop stop-color="#FF5D00" stop-opacity="0"/><stop offset="1" stop-color="#D54003"/></linearGradient><linearGradient id="n" x1="1.789" y1="40.4" x2="6.853" y2="45.462" gradientUnits="userSpaceOnUse"><stop stop-color="#9EB644"/><stop offset="1" stop-color="#738611"/></linearGradient><linearGradient id="o" x1="6.197" y1="41.513" x2="9.87" y2="45.186" gradientUnits="userSpaceOnUse"><stop stop-color="#9EB644"/><stop offset="1" stop-color="#738611"/></linearGradient><linearGradient id="p" x1="37.464" y1="39.727" x2="43.366" y2="45.63" gradientUnits="userSpaceOnUse"><stop stop-color="#9EB644"/><stop offset="1" stop-color="#738611"/></linearGradient><linearGradient id="q" x1="28.888" y1="20.307" x2="15.975" y2="7.393" gradientUnits="userSpaceOnUse"><stop stop-color="#FF5D00" stop-opacity="0"/><stop offset="1" stop-color="#D54003"/></linearGradient><linearGradient id="r" x1="22.473" y1="23.498" x2="22.473" y2="28.11" gradientUnits="userSpaceOnUse"><stop stop-color="#FF5D00"/><stop offset="1" stop-color="#D54003"/></linearGradient><linearGradient id="s" x1="22.472" y1="12.603" x2="22.472" y2="28.263" gradientUnits="userSpaceOnUse"><stop stop-color="#FF5D00"/><stop offset="1" stop-color="#D54003"/></linearGradient><linearGradient id="t" x1="35.941" y1="15.384" x2="26.476" y2="5.919" gradientUnits="userSpaceOnUse"><stop stop-color="#FF5D00" stop-opacity="0"/><stop offset="1" stop-color="#D54003"/></linearGradient></defs></svg>