<svg width="24" height="26" fill="none" xmlns="http://www.w3.org/2000/svg"><path d="M17.425 13 1.41.577A2.653 2.653 0 0 0 .385 2.69v20.62a2.65 2.65 0 0 0 1.026 2.112L17.425 13Z" fill="#9DC6FB"/><path d="m22.272 10.674-3.875-2.237-3.396.424L13.835 13l.592 3.962 3.97.6 3.875-2.236c1.79-1.034 1.79-3.618 0-4.652Z" fill="#FFE07D"/><path d="M18.397 8.437 4.414.364a2.671 2.671 0 0 0-3.002.213L13.834 13l4.563-4.563Z" fill="#DD5790"/><path d="M18.397 17.563 13.834 13 1.412 25.422a2.67 2.67 0 0 0 3.002.214l13.983-8.073Z" fill="#95D6A4"/><path d="M3.413 2.69c0-.18.016-.355.049-.522L1.412.578A2.652 2.652 0 0 0 .385 2.69v20.62c0 .888.414 1.633 1.027 2.112l2.05-1.59a2.739 2.739 0 0 1-.05-.522V2.69Z" fill="#80B4FB"/><path d="M4.592.466 4.414.364a2.673 2.673 0 0 0-3.002.213l2.003 2.004A2.65 2.65 0 0 1 4.439.577c.05-.038.101-.076.153-.111Z" fill="#DA387D"/><path d="M4.439 25.422v-.001.001a2.65 2.65 0 0 1-1.024-2.003l-2.003 2.003a2.67 2.67 0 0 0 3.002.214l.178-.103a2.63 2.63 0 0 1-.153-.111Z" fill="#78C2A4"/></svg>