<svg width="52" height="52" fill="none" xmlns="http://www.w3.org/2000/svg"><path d="M26.283.002v51.996C40.513 51.848 52 40.265 52 26S40.512.153 26.283.002Z" fill="#FFBB54"/><path d="M26.282.002 26 0C11.64 0 0 11.64 0 26s11.64 26 26 26l.282-.002C38.2 51.818 47.816 40.248 47.816 26 47.815 11.753 38.2.182 26.283.002Z" fill="#FFD45A"/><path d="m36.306 22.882-10.173 13h10.451a13.385 13.385 0 0 0 2.86-8.292v-1.57a3.148 3.148 0 0 0-3.138-3.138Z" fill="#B74147"/><path d="M15.694 22.882a3.148 3.148 0 0 0-3.139 3.139v1.57c0 3.128 1.068 6.007 2.86 8.291l19.571-1.707c.84-1.947 1.32-4.193 1.32-6.585v-1.569l-20.612-3.139Z" fill="#FF3C1F"/><path d="m34.986 34.175-8.853 6.859a13.42 13.42 0 0 0 10.451-5.152 13.482 13.482 0 0 0-1.598-1.707Z" fill="#FA4087"/><path d="M34.987 34.175c-1.746 4.048-5.052 6.796-8.854 6.859l-.133.001a13.42 13.42 0 0 1-10.584-5.153A13.423 13.423 0 0 1 26 30.73c3.455 0 6.605 1.304 8.987 3.446Z" fill="#FA71A3"/><path d="m33.167 22.882-1.57 4.708h3.14c.863 0 1.569-.706 1.569-1.57v-3.138h-3.139Z" fill="#FFF7DF"/><path d="M33.167 22.882v3.139c0 .863-.706 1.57-1.57 1.57H17.265c-.863 0-1.57-.707-1.57-1.57v-3.139h17.473Z" fill="#fff"/><path d="M26.785 44.959h-1.57a.785.785 0 1 1 0-1.57h1.57a.785.785 0 1 1 0 1.57Z" fill="#FFBB54"/><path d="M34.736 11.896c-.863 0-1.569.706-1.569 1.57v4.708c0 .863.706 1.57 1.57 1.57.863 0 1.569-.707 1.569-1.57v-4.708c0-.864-.706-1.57-1.57-1.57ZM17.264 11.897c-.863 0-1.57.706-1.57 1.57v4.708c0 .863.707 1.57 1.57 1.57.863 0 1.57-.707 1.57-1.57v-4.708c0-.864-.707-1.57-1.57-1.57Z" fill="#474867"/></svg>